<?xml version="1.0" encoding="UTF-8" standalone="no"?>
<svg xmlns="http://www.w3.org/2000/svg" xmlns:xlink="http://www.w3.org/1999/xlink" contentScriptType="application/ecmascript" contentStyleType="text/css" height="1120px" preserveAspectRatio="none" style="width:1274px;height:1120px;background:#FFFFFF;" version="1.1" viewBox="0 0 1274 1120" width="1274px" zoomAndPan="magnify"><defs><filter height="300%" id="fdi2ers5oeec2" width="300%" x="-1" y="-1"><feGaussianBlur result="blurOut" stdDeviation="2.0"/><feColorMatrix in="blurOut" result="blurOut2" type="matrix" values="0 0 0 0 0 0 0 0 0 0 0 0 0 0 0 0 0 0 .4 0"/><feOffset dx="4.0" dy="4.0" in="blurOut2" result="blurOut3"/><feBlend in="SourceGraphic" in2="blurOut3" mode="normal"/></filter></defs><g><rect fill="#FFFFFF" filter="url(#fdi2ers5oeec2)" height="87.4297" style="stroke:#A80036;stroke-width:1.0;" width="10" x="191.5" y="128.0297"/><rect fill="#FFFFFF" filter="url(#fdi2ers5oeec2)" height="74.8" style="stroke:#A80036;stroke-width:1.0;" width="10" x="191.5" y="245.0594"/><rect fill="#FFFFFF" filter="url(#fdi2ers5oeec2)" height="641.586" style="stroke:#A80036;stroke-width:1.0;" width="10" x="191.5" y="349.4595"/><rect fill="#FFFFFF" filter="url(#fdi2ers5oeec2)" height="87.4297" style="stroke:#A80036;stroke-width:1.0;" width="10" x="741.5" y="466.9251"/><rect fill="#FFFFFF" filter="url(#fdi2ers5oeec2)" height="222.2625" style="stroke:#A80036;stroke-width:1.0;" width="10" x="741.5" y="583.9548"/><line style="stroke:#A80036;stroke-width:1.0;stroke-dasharray:5.0,5.0;" x1="196" x2="196" y1="53.2969" y2="1063.3111"/><line style="stroke:#A80036;stroke-width:1.0;stroke-dasharray:5.0,5.0;" x1="364" x2="364" y1="53.2969" y2="1063.3111"/><line style="stroke:#A80036;stroke-width:1.0;stroke-dasharray:5.0,5.0;" x1="626.5" x2="626.5" y1="53.2969" y2="1063.3111"/><line style="stroke:#A80036;stroke-width:1.0;stroke-dasharray:5.0,5.0;" x1="746" x2="746" y1="53.2969" y2="1063.3111"/><line style="stroke:#A80036;stroke-width:1.0;stroke-dasharray:5.0,5.0;" x1="833" x2="833" y1="175.1781" y2="1063.3111"/><line style="stroke:#A80036;stroke-width:1.0;stroke-dasharray:5.0,5.0;" x1="1154.5" x2="1154.5" y1="514.0735" y2="1063.3111"/><line style="stroke:#A80036;stroke-width:1.0;stroke-dasharray:5.0,5.0;" x1="1229.5" x2="1229.5" y1="950.7642" y2="1063.3111"/><text fill="#000000" font-family="sans-serif" font-size="14" lengthAdjust="spacing" textLength="47" x="170" y="49.9951">Server</text><ellipse cx="196.5" cy="21" fill="#FEFECE" filter="url(#fdi2ers5oeec2)" rx="12" ry="12" style="stroke:#A80036;stroke-width:2.0;"/><polygon fill="#A80036" points="192.5,9,198.5,4,196.5,9,198.5,14,192.5,9" style="stroke:#A80036;stroke-width:1.0;"/><text fill="#000000" font-family="sans-serif" font-size="14" lengthAdjust="spacing" textLength="47" x="170" y="1075.3062">Server</text><ellipse cx="196.5" cy="1094.608" fill="#FEFECE" filter="url(#fdi2ers5oeec2)" rx="12" ry="12" style="stroke:#A80036;stroke-width:2.0;"/><polygon fill="#A80036" points="192.5,1082.608,198.5,1077.608,196.5,1082.608,198.5,1087.608,192.5,1082.608" style="stroke:#A80036;stroke-width:1.0;"/><rect fill="#FEFECE" filter="url(#fdi2ers5oeec2)" height="30.2969" style="stroke:#A80036;stroke-width:1.5;" width="43" x="341" y="18"/><text fill="#000000" font-family="sans-serif" font-size="14" lengthAdjust="spacing" textLength="29" x="348" y="37.9951">OS1</text><rect fill="#FEFECE" filter="url(#fdi2ers5oeec2)" height="30.2969" style="stroke:#A80036;stroke-width:1.5;" width="43" x="341" y="1062.3111"/><text fill="#000000" font-family="sans-serif" font-size="14" lengthAdjust="spacing" textLength="29" x="348" y="1082.3062">OS1</text><rect fill="#FEFECE" filter="url(#fdi2ers5oeec2)" height="30.2969" style="stroke:#A80036;stroke-width:1.5;" width="42" x="603.5" y="18"/><text fill="#000000" font-family="sans-serif" font-size="14" lengthAdjust="spacing" textLength="28" x="610.5" y="37.9951">OS2</text><rect fill="#FEFECE" filter="url(#fdi2ers5oeec2)" height="30.2969" style="stroke:#A80036;stroke-width:1.5;" width="42" x="603.5" y="1062.3111"/><text fill="#000000" font-family="sans-serif" font-size="14" lengthAdjust="spacing" textLength="28" x="610.5" y="1082.3062">OS2</text><text fill="#000000" font-family="sans-serif" font-size="14" lengthAdjust="spacing" textLength="43" x="722" y="49.9951">Client</text><ellipse cx="746.5" cy="21" fill="#FEFECE" filter="url(#fdi2ers5oeec2)" rx="12" ry="12" style="stroke:#A80036;stroke-width:2.0;"/><polygon fill="#A80036" points="742.5,9,748.5,4,746.5,9,748.5,14,742.5,9" style="stroke:#A80036;stroke-width:1.0;"/><text fill="#000000" font-family="sans-serif" font-size="14" lengthAdjust="spacing" textLength="43" x="722" y="1075.3062">Client</text><ellipse cx="746.5" cy="1094.608" fill="#FEFECE" filter="url(#fdi2ers5oeec2)" rx="12" ry="12" style="stroke:#A80036;stroke-width:2.0;"/><polygon fill="#A80036" points="742.5,1082.608,748.5,1077.608,746.5,1082.608,748.5,1087.608,742.5,1082.608" style="stroke:#A80036;stroke-width:1.0;"/><text fill="#000000" font-family="sans-serif" font-size="14" lengthAdjust="spacing" textLength="98" x="781" y="1075.3062">ServerSocket</text><path d="M812.5,1082.608 L812.5,1106.608 M812.5,1094.608 L829.5,1094.608 " fill="none" filter="url(#fdi2ers5oeec2)" style="stroke:#A80036;stroke-width:2.0;"/><ellipse cx="841.5" cy="1094.608" fill="#FEFECE" filter="url(#fdi2ers5oeec2)" rx="12" ry="12" style="stroke:#A80036;stroke-width:2.0;"/><text fill="#000000" font-family="sans-serif" font-size="14" lengthAdjust="spacing" textLength="60" x="1121.5" y="1075.3062">Socket1</text><path d="M1134,1082.608 L1134,1106.608 M1134,1094.608 L1151,1094.608 " fill="none" filter="url(#fdi2ers5oeec2)" style="stroke:#A80036;stroke-width:2.0;"/><ellipse cx="1163" cy="1094.608" fill="#FEFECE" filter="url(#fdi2ers5oeec2)" rx="12" ry="12" style="stroke:#A80036;stroke-width:2.0;"/><text fill="#000000" font-family="sans-serif" font-size="14" lengthAdjust="spacing" textLength="59" x="1197.5" y="1075.3062">Socket2</text><path d="M1209.5,1082.608 L1209.5,1106.608 M1209.5,1094.608 L1226.5,1094.608 " fill="none" filter="url(#fdi2ers5oeec2)" style="stroke:#A80036;stroke-width:2.0;"/><ellipse cx="1238.5" cy="1094.608" fill="#FEFECE" filter="url(#fdi2ers5oeec2)" rx="12" ry="12" style="stroke:#A80036;stroke-width:2.0;"/><rect fill="#FFFFFF" filter="url(#fdi2ers5oeec2)" height="87.4297" style="stroke:#A80036;stroke-width:1.0;" width="10" x="191.5" y="128.0297"/><rect fill="#FFFFFF" filter="url(#fdi2ers5oeec2)" height="74.8" style="stroke:#A80036;stroke-width:1.0;" width="10" x="191.5" y="245.0594"/><rect fill="#FFFFFF" filter="url(#fdi2ers5oeec2)" height="641.586" style="stroke:#A80036;stroke-width:1.0;" width="10" x="191.5" y="349.4595"/><rect fill="#FFFFFF" filter="url(#fdi2ers5oeec2)" height="87.4297" style="stroke:#A80036;stroke-width:1.0;" width="10" x="741.5" y="466.9251"/><rect fill="#FFFFFF" filter="url(#fdi2ers5oeec2)" height="222.2625" style="stroke:#A80036;stroke-width:1.0;" width="10" x="741.5" y="583.9548"/><rect fill="#EEEEEE" filter="url(#fdi2ers5oeec2)" height="3" style="stroke:#EEEEEE;stroke-width:1.0;" width="1267.5" x="0" y="83.8633"/><line style="stroke:#000000;stroke-width:1.0;" x1="0" x2="1267.5" y1="83.8633" y2="83.8633"/><line style="stroke:#000000;stroke-width:1.0;" x1="0" x2="1267.5" y1="86.8633" y2="86.8633"/><rect fill="#EEEEEE" filter="url(#fdi2ers5oeec2)" height="23.1328" style="stroke:#000000;stroke-width:2.0;" width="136" x="565.75" y="73.2969"/><text fill="#000000" font-family="sans-serif" font-size="13" font-weight="bold" lengthAdjust="spacing" textLength="117" x="571.75" y="89.3638">server listening</text><polygon fill="#A80036" points="352.5,124.0297,362.5,128.0297,352.5,132.0297,356.5,128.0297" style="stroke:#A80036;stroke-width:1.0;"/><line style="stroke:#A80036;stroke-width:1.0;" x1="201.5" x2="358.5" y1="128.0297" y2="128.0297"/><text fill="#000000" font-family="monospace" font-size="13" lengthAdjust="spacing" textLength="144" x="208.5" y="122.4677">new ServerSocket()</text><polygon fill="#A80036" points="769,153.1625,779,157.1625,769,161.1625,773,157.1625" style="stroke:#A80036;stroke-width:1.0;"/><line style="stroke:#A80036;stroke-width:1.0;" x1="364.5" x2="775" y1="157.1625" y2="157.1625"/><text fill="#000000" font-family="sans-serif" font-size="13" lengthAdjust="spacing" textLength="52" x="371.5" y="152.0966">creation</text><text fill="#000000" font-family="sans-serif" font-size="14" lengthAdjust="spacing" textLength="98" x="781" y="181.0248">ServerSocket</text><path d="M812.5,140.0297 L812.5,164.0297 M812.5,152.0297 L829.5,152.0297 " fill="none" filter="url(#fdi2ers5oeec2)" style="stroke:#A80036;stroke-width:2.0;"/><ellipse cx="841.5" cy="152.0297" fill="#FEFECE" filter="url(#fdi2ers5oeec2)" rx="12" ry="12" style="stroke:#A80036;stroke-width:2.0;"/><polygon fill="#A80036" points="207.5,211.4594,197.5,215.4594,207.5,219.4594,203.5,215.4594" style="stroke:#A80036;stroke-width:1.0;"/><line style="stroke:#A80036;stroke-width:1.0;stroke-dasharray:2.0,2.0;" x1="201.5" x2="832" y1="215.4594" y2="215.4594"/><text fill="#000000" font-family="sans-serif" font-size="13" lengthAdjust="spacing" textLength="160" x="213.5" y="210.3935">return reference to caller</text><polygon fill="#A80036" points="821,241.0594,831,245.0594,821,249.0594,825,245.0594" style="stroke:#A80036;stroke-width:1.0;"/><line style="stroke:#A80036;stroke-width:1.0;" x1="201.5" x2="827" y1="245.0594" y2="245.0594"/><text fill="#000000" font-family="monospace" font-size="13" lengthAdjust="spacing" textLength="168" x="208.5" y="239.4974">bind(WELL_KNOWN_PORT)</text><polygon fill="#A80036" points="375.5,270.6594,365.5,274.6594,375.5,278.6594,371.5,274.6594" style="stroke:#A80036;stroke-width:1.0;"/><line style="stroke:#A80036;stroke-width:1.0;" x1="369.5" x2="832" y1="274.6594" y2="274.6594"/><text fill="#000000" font-family="sans-serif" font-size="13" lengthAdjust="spacing" textLength="49" x="381.5" y="269.5935">reserve</text><text fill="#000000" font-family="monospace" font-size="13" lengthAdjust="spacing" textLength="120" x="434.5" y="269.0974">WELL_KNOWN_PORT</text><polygon fill="#A80036" points="207.5,315.8594,197.5,319.8594,207.5,323.8594,203.5,319.8594" style="stroke:#A80036;stroke-width:1.0;"/><line style="stroke:#A80036;stroke-width:1.0;stroke-dasharray:2.0,2.0;" x1="201.5" x2="832" y1="319.8594" y2="319.8594"/><text fill="#000000" font-family="sans-serif" font-size="13" lengthAdjust="spacing" textLength="46" x="213.5" y="299.1935">returns</text><text fill="#000000" font-family="monospace" font-size="13" lengthAdjust="spacing" textLength="32" x="263.5" y="298.6974">void</text><text fill="#000000" font-family="sans-serif" font-size="13" lengthAdjust="spacing" textLength="27" x="299.5" y="299.1935">if ok</text><text fill="#000000" font-family="sans-serif" font-size="13" lengthAdjust="spacing" textLength="61" x="213.5" y="314.7935">or throws</text><text fill="#000000" font-family="monospace" font-size="13" lengthAdjust="spacing" textLength="104" x="278.5" y="314.2974">BindException</text><polygon fill="#A80036" points="821,345.4595,831,349.4595,821,353.4595,825,349.4595" style="stroke:#A80036;stroke-width:1.0;"/><line style="stroke:#A80036;stroke-width:1.0;" x1="201.5" x2="827" y1="349.4595" y2="349.4595"/><text fill="#000000" font-family="monospace" font-size="13" lengthAdjust="spacing" textLength="64" x="208.5" y="343.8975">accept()</text><polygon fill="#A80036" points="375.5,390.1923,365.5,394.1923,375.5,398.1923,371.5,394.1923" style="stroke:#A80036;stroke-width:1.0;"/><line style="stroke:#A80036;stroke-width:1.0;" x1="369.5" x2="832" y1="394.1923" y2="394.1923"/><text fill="#000000" font-family="sans-serif" font-size="13" lengthAdjust="spacing" textLength="137" x="381.5" y="373.5264">listen for connections</text><text fill="#000000" font-family="sans-serif" font-size="13" lengthAdjust="spacing" textLength="16" x="381.5" y="389.1264">on</text><text fill="#000000" font-family="monospace" font-size="13" lengthAdjust="spacing" textLength="120" x="401.5" y="388.6303">WELL_KNOWN_PORT</text><rect fill="#EEEEEE" filter="url(#fdi2ers5oeec2)" height="3" style="stroke:#EEEEEE;stroke-width:1.0;" width="1267.5" x="0" y="422.7587"/><line style="stroke:#000000;stroke-width:1.0;" x1="0" x2="1267.5" y1="422.7587" y2="422.7587"/><line style="stroke:#000000;stroke-width:1.0;" x1="0" x2="1267.5" y1="425.7587" y2="425.7587"/><rect fill="#EEEEEE" filter="url(#fdi2ers5oeec2)" height="23.1328" style="stroke:#000000;stroke-width:2.0;" width="149" x="559.25" y="412.1923"/><text fill="#000000" font-family="sans-serif" font-size="13" font-weight="bold" lengthAdjust="spacing" textLength="130" x="565.25" y="428.2592">client connecting</text><polygon fill="#A80036" points="637.5,462.9251,627.5,466.9251,637.5,470.9251,633.5,466.9251" style="stroke:#A80036;stroke-width:1.0;"/><line style="stroke:#A80036;stroke-width:1.0;" x1="631.5" x2="740.5" y1="466.9251" y2="466.9251"/><text fill="#000000" font-family="monospace" font-size="13" lengthAdjust="spacing" textLength="96" x="643.5" y="461.3631">new Socket()</text><polygon fill="#A80036" points="1109.5,492.0579,1119.5,496.0579,1109.5,500.0579,1113.5,496.0579" style="stroke:#A80036;stroke-width:1.0;"/><line style="stroke:#A80036;stroke-width:1.0;" x1="626.5" x2="1115.5" y1="496.0579" y2="496.0579"/><text fill="#000000" font-family="sans-serif" font-size="13" lengthAdjust="spacing" textLength="52" x="633.5" y="490.992">creation</text><text fill="#000000" font-family="sans-serif" font-size="14" lengthAdjust="spacing" textLength="60" x="1121.5" y="519.9202">Socket1</text><path d="M1134,478.9251 L1134,502.9251 M1134,490.9251 L1151,490.9251 " fill="none" filter="url(#fdi2ers5oeec2)" style="stroke:#A80036;stroke-width:2.0;"/><ellipse cx="1163" cy="490.9251" fill="#FEFECE" filter="url(#fdi2ers5oeec2)" rx="12" ry="12" style="stroke:#A80036;stroke-width:2.0;"/><polygon fill="#A80036" points="757.5,550.3548,747.5,554.3548,757.5,558.3548,753.5,554.3548" style="stroke:#A80036;stroke-width:1.0;"/><line style="stroke:#A80036;stroke-width:1.0;stroke-dasharray:2.0,2.0;" x1="751.5" x2="1153.5" y1="554.3548" y2="554.3548"/><text fill="#000000" font-family="sans-serif" font-size="13" lengthAdjust="spacing" textLength="160" x="763.5" y="549.2889">return reference to caller</text><polygon fill="#A80036" points="1142.5,579.9548,1152.5,583.9548,1142.5,587.9548,1146.5,583.9548" style="stroke:#A80036;stroke-width:1.0;"/><line style="stroke:#A80036;stroke-width:1.0;" x1="751.5" x2="1148.5" y1="583.9548" y2="583.9548"/><text fill="#000000" font-family="monospace" font-size="13" lengthAdjust="spacing" textLength="384" x="758.5" y="578.3928">connect("IP address of Server", WELL_KNOWN_PORT)</text><polygon fill="#A80036" points="637.5,609.0876,627.5,613.0876,637.5,617.0876,633.5,613.0876" style="stroke:#A80036;stroke-width:1.0;"/><line style="stroke:#A80036;stroke-width:1.0;" x1="631.5" x2="1153.5" y1="613.0876" y2="613.0876"/><text fill="#000000" font-family="sans-serif" font-size="13" lengthAdjust="spacing" textLength="123" x="643.5" y="608.0217">connection request</text><polygon fill="#A80036" points="375.5,638.2204,365.5,642.2204,375.5,646.2204,371.5,642.2204" style="stroke:#A80036;stroke-width:1.0;"/><line style="stroke:#A80036;stroke-width:1.0;" x1="369.5" x2="625.5" y1="642.2204" y2="642.2204"/><text fill="#000000" font-family="sans-serif" font-size="13" lengthAdjust="spacing" textLength="80" x="381.5" y="637.1545">contact host</text><polygon fill="#A80036" points="614.5,697.6189,624.5,701.6189,614.5,705.6189,618.5,701.6189" style="stroke:#A80036;stroke-width:1.0;"/><line style="stroke:#A80036;stroke-width:1.0;stroke-dasharray:2.0,2.0;" x1="364.5" x2="620.5" y1="701.6189" y2="701.6189"/><text fill="#000000" font-family="sans-serif" font-size="13" lengthAdjust="spacing" textLength="187" x="371.5" y="666.2873">host found with listening port</text><text fill="#000000" font-family="sans-serif" font-size="13" lengthAdjust="spacing" textLength="199" x="371.5" y="681.4201">or host not found within timout</text><text fill="#000000" font-family="sans-serif" font-size="13" lengthAdjust="spacing" textLength="238" x="371.5" y="696.553">or host found but no listening service</text><polygon fill="#A80036" points="1142.5,741.8845,1152.5,745.8845,1142.5,749.8845,1146.5,745.8845" style="stroke:#A80036;stroke-width:1.0;"/><line style="stroke:#A80036;stroke-width:1.0;stroke-dasharray:2.0,2.0;" x1="626.5" x2="1148.5" y1="745.8845" y2="745.8845"/><text fill="#000000" font-family="sans-serif" font-size="13" lengthAdjust="spacing" textLength="147" x="633.5" y="725.6858">connection established</text><text fill="#000000" font-family="sans-serif" font-size="13" lengthAdjust="spacing" textLength="80" x="633.5" y="740.8186">or exception</text><polygon fill="#A80036" points="757.5,802.2173,747.5,806.2173,757.5,810.2173,753.5,806.2173" style="stroke:#A80036;stroke-width:1.0;"/><line style="stroke:#A80036;stroke-width:1.0;stroke-dasharray:2.0,2.0;" x1="751.5" x2="1153.5" y1="806.2173" y2="806.2173"/><text fill="#000000" font-family="sans-serif" font-size="13" lengthAdjust="spacing" textLength="46" x="763.5" y="770.4186">returns</text><text fill="#000000" font-family="monospace" font-size="13" lengthAdjust="spacing" textLength="32" x="813.5" y="769.9225">void</text><text fill="#000000" font-family="sans-serif" font-size="13" lengthAdjust="spacing" textLength="159" x="849.5" y="770.4186">if conncetion established</text><text fill="#000000" font-family="sans-serif" font-size="13" lengthAdjust="spacing" textLength="61" x="763.5" y="786.0186">or throws</text><text fill="#000000" font-family="monospace" font-size="13" lengthAdjust="spacing" textLength="88" x="828.5" y="785.5225">IOException</text><text fill="#000000" font-family="sans-serif" font-size="13" lengthAdjust="spacing" textLength="224" x="763.5" y="801.1514">or throws SocketTimeoutException</text><path d="M751,819.2173 L751,859.2173 L928,859.2173 L928,829.2173 L918,819.2173 L751,819.2173 " fill="#FBFB77" filter="url(#fdi2ers5oeec2)" style="stroke:#A80036;stroke-width:1.0;"/><path d="M918,819.2173 L918,829.2173 L928,829.2173 L918,819.2173 " fill="#FBFB77" style="stroke:#A80036;stroke-width:1.0;"/><text fill="#000000" font-family="sans-serif" font-size="13" lengthAdjust="spacing" textLength="156" x="757" y="836.2842">Client is connected now,</text><text fill="#000000" font-family="sans-serif" font-size="13" lengthAdjust="spacing" textLength="135" x="757" y="851.417">and ready to interact</text><rect fill="#EEEEEE" filter="url(#fdi2ers5oeec2)" height="3" style="stroke:#EEEEEE;stroke-width:1.0;" width="1267.5" x="0" y="889.0494"/><line style="stroke:#000000;stroke-width:1.0;" x1="0" x2="1267.5" y1="889.0494" y2="889.0494"/><line style="stroke:#000000;stroke-width:1.0;" x1="0" x2="1267.5" y1="892.0494" y2="892.0494"/><rect fill="#EEEEEE" filter="url(#fdi2ers5oeec2)" height="23.1328" style="stroke:#000000;stroke-width:2.0;" width="290" x="488.75" y="878.483"/><text fill="#000000" font-family="sans-serif" font-size="13" font-weight="bold" lengthAdjust="spacing" textLength="271" x="494.75" y="894.5499">in the meanwhile on the server side</text><polygon fill="#A80036" points="1185.5,928.7486,1195.5,932.7486,1185.5,936.7486,1189.5,932.7486" style="stroke:#A80036;stroke-width:1.0;"/><line style="stroke:#A80036;stroke-width:1.0;" x1="364.5" x2="1191.5" y1="932.7486" y2="932.7486"/><text fill="#000000" font-family="sans-serif" font-size="13" lengthAdjust="spacing" textLength="52" x="371.5" y="927.6827">creation</text><text fill="#000000" font-family="sans-serif" font-size="14" lengthAdjust="spacing" textLength="59" x="1197.5" y="956.6109">Socket2</text><path d="M1209.5,915.6158 L1209.5,939.6158 M1209.5,927.6158 L1226.5,927.6158 " fill="none" filter="url(#fdi2ers5oeec2)" style="stroke:#A80036;stroke-width:2.0;"/><ellipse cx="1238.5" cy="927.6158" fill="#FEFECE" filter="url(#fdi2ers5oeec2)" rx="12" ry="12" style="stroke:#A80036;stroke-width:2.0;"/><polygon fill="#A80036" points="207.5,987.0455,197.5,991.0455,207.5,995.0455,203.5,991.0455" style="stroke:#A80036;stroke-width:1.0;"/><line style="stroke:#A80036;stroke-width:1.0;stroke-dasharray:2.0,2.0;" x1="201.5" x2="1229" y1="991.0455" y2="991.0455"/><text fill="#000000" font-family="sans-serif" font-size="13" lengthAdjust="spacing" textLength="177" x="213.5" y="985.9795">return reference to caller of</text><text fill="#000000" font-family="sans-serif" font-size="13" font-style="italic" lengthAdjust="spacing" textLength="53" x="394.5" y="985.9795">accept()</text><path d="M5,1004.0455 L5,1044.0455 L188,1044.0455 L188,1014.0455 L178,1004.0455 L5,1004.0455 " fill="#FBFB77" filter="url(#fdi2ers5oeec2)" style="stroke:#A80036;stroke-width:1.0;"/><path d="M178,1004.0455 L178,1014.0455 L188,1014.0455 L178,1004.0455 " fill="#FBFB77" style="stroke:#A80036;stroke-width:1.0;"/><text fill="#000000" font-family="sans-serif" font-size="13" lengthAdjust="spacing" textLength="162" x="11" y="1021.1124">Server is connected now,</text><text fill="#000000" font-family="sans-serif" font-size="13" lengthAdjust="spacing" textLength="135" x="11" y="1036.2452">and ready to interact</text><!--MD5=[d73c8ed82c6fc415f9c0f317d2957233]
@startuml
'hide footbox

control Server
participant OS1
participant OS2
control Client

== server listening ==

Server -> OS1 :  ""new ServerSocket()""
activate Server

create boundary ServerSocket
OS1 -> ServerSocket : creation
Server <- - ServerSocket : return reference to caller
deactivate Server

Server -> ServerSocket : ""bind(WELL_KNOWN_PORT)""
activate Server
ServerSocket -> OS1 : reserve ""WELL_KNOWN_PORT""
Server <- - ServerSocket : returns ""void"" if ok\nor throws ""BindException""
deactivate Server

Server -> ServerSocket: ""accept()""
activate Server
ServerSocket -> OS1 : listen for connections\non ""WELL_KNOWN_PORT""


== client connecting ==

OS2 <- Client : ""new Socket()""
activate Client

create boundary Socket1
OS2 -> Socket1 : creation
Socket1 - -> Client : return reference to caller
deactivate Client

Socket1 <- Client : ""connect("IP address of Server", WELL_KNOWN_PORT)""
activate Client
Socket1 -> OS2 : connection request

OS2 -> OS1 : contact host

OS1 - -> OS2 : host found with listening port\nor host not found within timout\nor host found but no listening service

OS2 - -> Socket1 : connection established\nor exception

Socket1 - -> Client : returns ""void"" if conncetion established\nor throws ""IOException""\nor throws SocketTimeoutException""""
deactivate Client

note right of Client: Client is connected now,\nand ready to interact

== in the meanwhile on the server side ==

create boundary Socket2
OS1 -> Socket2 : creation

Socket2 - -> Server : return reference to caller of //accept()//
deactivate Server

note left of Server : Server is connected now,\nand ready to interact
@enduml

@startuml

control Server
participant OS1
participant OS2
control Client

== server listening ==

Server -> OS1 :  ""new ServerSocket()""
activate Server

create boundary ServerSocket
OS1 -> ServerSocket : creation
Server <- - ServerSocket : return reference to caller
deactivate Server

Server -> ServerSocket : ""bind(WELL_KNOWN_PORT)""
activate Server
ServerSocket -> OS1 : reserve ""WELL_KNOWN_PORT""
Server <- - ServerSocket : returns ""void"" if ok\nor throws ""BindException""
deactivate Server

Server -> ServerSocket: ""accept()""
activate Server
ServerSocket -> OS1 : listen for connections\non ""WELL_KNOWN_PORT""


== client connecting ==

OS2 <- Client : ""new Socket()""
activate Client

create boundary Socket1
OS2 -> Socket1 : creation
Socket1 - -> Client : return reference to caller
deactivate Client

Socket1 <- Client : ""connect("IP address of Server", WELL_KNOWN_PORT)""
activate Client
Socket1 -> OS2 : connection request

OS2 -> OS1 : contact host

OS1 - -> OS2 : host found with listening port\nor host not found within timout\nor host found but no listening service

OS2 - -> Socket1 : connection established\nor exception

Socket1 - -> Client : returns ""void"" if conncetion established\nor throws ""IOException""\nor throws SocketTimeoutException""""
deactivate Client

note right of Client: Client is connected now,\nand ready to interact

== in the meanwhile on the server side ==

create boundary Socket2
OS1 -> Socket2 : creation

Socket2 - -> Server : return reference to caller of //accept()//
deactivate Server

note left of Server : Server is connected now,\nand ready to interact
@enduml

PlantUML version 1.2021.12(Tue Oct 05 16:01:58 UTC 2021)
(GPL source distribution)
Java Runtime: Java(TM) SE Runtime Environment
JVM: Java HotSpot(TM) 64-Bit Server VM
Default Encoding: UTF-8
Language: en
Country: US
--></g></svg>